# xmcd
#
# Track frame offsets:
#	150
#	15300
#	33372
#	51345
#	71482
#	87030
#	105595
#	122090
#	137425
#	153252
#	166102
#	183420
#
# Disc length: 2673 seconds
# Revision: 8
# Processed by: cddbd v1.5.2PL0 Copyright (c) Steve Scherf et al.
# Submitted via: dBpowerAMP V12.0
#
DISCID=8a0a6f0c
DTITLE=Reba McEntire - Room To Breathe
DYEAR=2003
DGENRE=Country
TTITLE0=Secret
TTITLE1=If I Had Any Sense Left At All
TTITLE2=My Sister
TTITLE3=Once You've Learned To Be Lonely
TTITLE4=Moving Oleta
TTITLE5=Love Revival
TTITLE6=He Gets That From Me
TTITLE7=I'm Gonna Take That Mountain
TTITLE8=Room To Breathe
TTITLE9=Sky Full Of Angels
TTITLE10=Somebody
TTITLE11=It Just Has To Be This Way
EXTD=
EXTT0=
EXTT1=
EXTT2=
EXTT3=
EXTT4=
EXTT5=
EXTT6=
EXTT7=
EXTT8=
EXTT9=
EXTT10=
EXTT11=
PLAYORDER=
